<?xml version="1.0" encoding="utf-8"?>
<svg viewBox="8.273 -2.167 500 500" xmlns="http://www.w3.org/2000/svg">
  <rect rx="26.87" ry="26.87" style="stroke-linejoin: round; stroke-dashoffset: 18px; mix-blend-mode: darken; isolation: isolate; stroke-width: 9px; fill: rgba(216, 216, 216, 0); stroke: rgb(218, 85, 85);" height="240.502" transform="matrix(0.877503, -0.479571, 0.479571, 0.877503, -69.980873, 68.79364)" x="90.161" y="158.696" width="145.191"/>
  <path d="M 113.228 155.135 L 224.164 155.135 C 230.635 155.35 237.445 158.192 241.672 162.393 C 245.873 166.62 248.715 173.445 248.93 179.916 L 248.93 383.051 C 248.715 389.522 245.873 396.332 241.672 400.559 C 237.445 404.76 230.62 407.602 224.149 407.817 L 113.213 407.817 C 106.742 407.602 99.932 404.76 95.705 400.559 C 91.504 396.332 88.662 389.507 88.447 383.036 L 88.447 179.901 C 88.662 173.43 91.504 166.62 95.705 162.393 C 99.932 158.192 106.757 155.35 113.228 155.135 Z M 96.413 163.101 C 92.32 167.166 89.626 173.632 89.447 179.923 L 89.447 383.029 C 89.626 389.32 92.32 395.786 96.413 399.851 C 100.478 403.944 106.944 406.638 113.235 406.817 L 224.142 406.817 C 230.433 406.638 236.899 403.945 240.964 399.852 C 245.057 395.786 247.751 389.32 247.93 383.029 L 247.93 179.923 C 247.751 173.632 245.058 167.166 240.965 163.101 C 236.899 159.008 230.433 156.314 224.142 156.135 L 113.235 156.135 C 106.944 156.314 100.478 159.008 96.413 163.101 Z M 113.237 164.135 L 224.14 164.135 C 228.801 163.97 232.232 165.699 235.308 168.757 C 238.366 171.833 240.095 175.264 239.93 179.925 L 239.93 383.027 C 240.095 387.688 238.366 391.119 235.308 394.195 C 232.232 397.253 228.801 398.982 224.14 398.817 L 113.237 398.817 C 108.576 398.982 105.145 397.253 102.069 394.195 C 99.011 391.119 97.282 387.688 97.447 383.027 L 97.447 179.925 C 97.282 175.264 99.011 171.833 102.069 168.757 C 105.145 165.699 108.576 163.97 113.237 164.135 Z M 102.777 169.464 C 99.81 172.413 98.223 175.476 98.447 179.894 L 98.447 383.036 C 98.224 387.455 99.809 390.539 102.776 393.487 C 105.725 396.454 108.788 398.041 113.206 397.817 L 224.149 397.817 C 228.568 398.04 231.652 396.455 234.6 393.488 C 237.567 390.539 239.154 387.476 238.93 383.058 L 238.93 179.916 C 239.153 175.497 237.568 172.413 234.601 169.465 C 231.652 166.498 228.589 164.911 224.171 165.135 L 113.228 165.135 C 108.809 164.912 105.725 166.497 102.777 169.464 Z" style="fill: none;" transform="matrix(-0.890509, -0.454965, -0.454965, 0.890509, 579.492631, 57.292564)"/>
</svg>